<svg clip-rule="evenodd" fill-rule="evenodd" stroke-linejoin="round" stroke-miterlimit="2" viewBox="0 0 64 64" xmlns="http://www.w3.org/2000/svg"><path d="m-.000438-.001h64v64h-64z" fill="none"/><g fill-rule="nonzero"><path d="m4 2h16c.549 0 1 .451 1 1v19.276.001c0 .274-.226.5-.5.5-.07 0-.14-.015-.204-.044l-8.296-3.703-8.296 3.702c-.064.029-.134.044-.204.044-.274 0-.5-.226-.5-.5v-19.276c0-.549.451-1 1-1zm15.799 19.164v-17.963h-15.598v17.963l7.799-3.524z" fill="#167bba" stroke="#167bba" stroke-width=".8" transform="matrix(2.50283 0 0 2.50283 1.9653 .994)"/><path d="m12 13.5-2.939 1.545.561-3.272-2.377-2.318 3.286-.478 1.469-2.977 1.47 2.977 3.285.478-2.377 2.318.56 3.272z" fill="#88c200" transform="matrix(2.83912 0 0 2.83912 -2.0697 -2.545)"/></g></svg>